<?xml version="1.0" encoding="UTF-8" standalone="no"?>
<!DOCTYPE svg PUBLIC "-//W3C//DTD SVG 1.1//EN"
 "http://www.w3.org/Graphics/SVG/1.1/DTD/svg11.dtd">
<!-- Generated by graphviz version 5.0.0 (20220707.1540)
 -->
<!-- Title: UmlClassDiagram Pages: 1 -->
<svg width="860pt" height="585pt"
 viewBox="0.00 0.00 860.43 584.60" xmlns="http://www.w3.org/2000/svg" xmlns:xlink="http://www.w3.org/1999/xlink">
<g id="graph0" class="graph" transform="scale(1 1) rotate(0) translate(4 580.6)">
<title>UmlClassDiagram</title>
<polygon fill="white" stroke="transparent" points="-4,4 -4,-580.6 856.43,-580.6 856.43,4 -4,4"/>
<!-- 0 -->
<g id="node1" class="node">
<title>0</title>
<polygon fill="#f2f2f2" stroke="black" points="349.52,-0.5 349.52,-150.9 723.45,-150.9 723.45,-0.5 349.52,-0.5"/>
<text text-anchor="middle" x="536.48" y="-134.3" font-family="Times,serif" font-size="14.00">&lt;&lt;Abstract&gt;&gt;</text>
<text text-anchor="middle" x="536.48" y="-117.5" font-family="Times,serif" font-size="14.00">SLDTradeableExit</text>
<text text-anchor="middle" x="536.48" y="-100.7" font-family="Times,serif" font-size="14.00">SLDTradeableExit/SLDTradeableExit.sol</text>
<polyline fill="none" stroke="black" points="349.52,-92.5 723.45,-92.5 "/>
<text text-anchor="start" x="357.52" y="-75.9" font-family="Times,serif" font-size="14.00">Internal:</text>
<text text-anchor="start" x="357.52" y="-59.1" font-family="Times,serif" font-size="14.00"> &#160;&#160;default_dispute_period: uint256</text>
<text text-anchor="start" x="357.52" y="-42.3" font-family="Times,serif" font-size="14.00"> &#160;&#160;dapp_requests: mapping(address=&gt;FastWithdrawalRequest[])</text>
<text text-anchor="start" x="357.52" y="-25.5" font-family="Times,serif" font-size="14.00"> &#160;&#160;id_to_request_position: mapping(bytes=&gt;Position)</text>
<text text-anchor="start" x="357.52" y="-8.7" font-family="Times,serif" font-size="14.00"> &#160;&#160;tickets: mapping(bytes=&gt;mapping(address=&gt;uint256))</text>
</g>
<!-- 2 -->
<g id="node3" class="node">
<title>2</title>
<polygon fill="#f2f2f2" stroke="black" points="0,-229.9 0,-329.9 202.97,-329.9 202.97,-229.9 0,-229.9"/>
<text text-anchor="middle" x="101.48" y="-313.3" font-family="Times,serif" font-size="14.00">&lt;&lt;Struct&gt;&gt;</text>
<text text-anchor="middle" x="101.48" y="-296.5" font-family="Times,serif" font-size="14.00">Position</text>
<text text-anchor="middle" x="101.48" y="-279.7" font-family="Times,serif" font-size="14.00">TradeableExit/ITradeableExit.sol</text>
<polyline fill="none" stroke="black" points="0,-271.5 202.97,-271.5 "/>
<text text-anchor="start" x="8" y="-254.9" font-family="Times,serif" font-size="14.00">pos: uint64</text>
<text text-anchor="start" x="8" y="-238.1" font-family="Times,serif" font-size="14.00">exists: bool</text>
</g>
<!-- 0&#45;&gt;2 -->
<g id="edge2" class="edge">
<title>0&#45;&gt;2</title>
<path fill="none" stroke="black" d="M349.24,-127.47C302.78,-143.54 254.12,-163.49 211.48,-187.4 193.86,-197.28 176.34,-210.12 160.63,-223.04"/>
<polygon fill="black" stroke="black" points="157.99,-220.67 152.58,-229.78 162.49,-226.04 157.99,-220.67"/>
</g>
<!-- 3 -->
<g id="node4" class="node">
<title>3</title>
<polygon fill="#f2f2f2" stroke="black" points="220.54,-187.9 220.54,-371.9 852.43,-371.9 852.43,-187.9 220.54,-187.9"/>
<text text-anchor="middle" x="536.48" y="-355.3" font-family="Times,serif" font-size="14.00">&lt;&lt;Interface&gt;&gt;</text>
<text text-anchor="middle" x="536.48" y="-338.5" font-family="Times,serif" font-size="14.00">ITradeableExit</text>
<text text-anchor="middle" x="536.48" y="-321.7" font-family="Times,serif" font-size="14.00">TradeableExit/ITradeableExit.sol</text>
<polyline fill="none" stroke="black" points="220.54,-313.5 852.43,-313.5 "/>
<text text-anchor="start" x="228.54" y="-296.9" font-family="Times,serif" font-size="14.00">External:</text>
<text text-anchor="start" x="228.54" y="-280.1" font-family="Times,serif" font-size="14.00"> &#160;&#160;&#160;&#160;requestFastWithdrawal(request_id: bytes, token: address, amount: uint256, input_timestamp: uint256)</text>
<text text-anchor="start" x="228.54" y="-263.3" font-family="Times,serif" font-size="14.00"> &#160;&#160;&#160;&#160;fundFastWithdrawalRequest(request_id: bytes, token: IERC20, amount: uint256)</text>
<text text-anchor="start" x="228.54" y="-246.5" font-family="Times,serif" font-size="14.00"> &#160;&#160;&#160;&#160;withdraw(request_id: bytes, withdraw_amount: uint256, destination: address, payload: bytes, proof: Proof)</text>
<text text-anchor="start" x="228.54" y="-229.7" font-family="Times,serif" font-size="14.00"> &#160;&#160;&#160;&#160;getRollupFastWithdrawalRequests(rollup: address): FastWithdrawalRequest[]</text>
<text text-anchor="start" x="228.54" y="-212.9" font-family="Times,serif" font-size="14.00"> &#160;&#160;&#160;&#160;getFastWithdrawalRequest(request_id: bytes): FastWithdrawalRequest</text>
<text text-anchor="start" x="228.54" y="-196.1" font-family="Times,serif" font-size="14.00"> &#160;&#160;&#160;&#160;getFastWithdrawalRequestRemainingTicketsPrice(request_id: bytes): (uint256, uint256, string)</text>
</g>
<!-- 0&#45;&gt;3 -->
<g id="edge1" class="edge">
<title>0&#45;&gt;3</title>
<path fill="none" stroke="black" stroke-dasharray="5,2" d="M536.48,-151.13C536.48,-153.28 536.48,-155.44 536.48,-157.61"/>
<polygon fill="none" stroke="black" points="525.98,-157.81 536.48,-187.81 546.98,-157.81 525.98,-157.81"/>
</g>
<!-- 1 -->
<g id="node2" class="node">
<title>1</title>
<polygon fill="#f2f2f2" stroke="black" points="435,-408.9 435,-576.1 637.97,-576.1 637.97,-408.9 435,-408.9"/>
<text text-anchor="middle" x="536.48" y="-559.5" font-family="Times,serif" font-size="14.00">&lt;&lt;Struct&gt;&gt;</text>
<text text-anchor="middle" x="536.48" y="-542.7" font-family="Times,serif" font-size="14.00">FastWithdrawalRequest</text>
<text text-anchor="middle" x="536.48" y="-525.9" font-family="Times,serif" font-size="14.00">TradeableExit/ITradeableExit.sol</text>
<polyline fill="none" stroke="black" points="435,-517.7 637.97,-517.7 "/>
<text text-anchor="start" x="443" y="-501.1" font-family="Times,serif" font-size="14.00">id: bytes</text>
<text text-anchor="start" x="443" y="-484.3" font-family="Times,serif" font-size="14.00">token: address</text>
<text text-anchor="start" x="443" y="-467.5" font-family="Times,serif" font-size="14.00">timestamp: uint256</text>
<text text-anchor="start" x="443" y="-450.7" font-family="Times,serif" font-size="14.00">amount: uint256</text>
<text text-anchor="start" x="443" y="-433.9" font-family="Times,serif" font-size="14.00">tickets_bought: uint256</text>
<text text-anchor="start" x="443" y="-417.1" font-family="Times,serif" font-size="14.00">redeemed: uint256</text>
</g>
<!-- 3&#45;&gt;1 -->
<g id="edge3" class="edge">
<title>3&#45;&gt;1</title>
<path fill="none" stroke="black" stroke-dasharray="5,2" d="M536.48,-372.05C536.48,-380.84 536.48,-389.76 536.48,-398.57"/>
<polygon fill="black" stroke="black" points="532.98,-398.83 536.48,-408.83 539.98,-398.83 532.98,-398.83"/>
</g>
</g>
</svg>
